<svg width="28" height="28" viewBox="0 0 28 28" fill="none" xmlns="http://www.w3.org/2000/svg">
<g id="Group 1">
<path id="Vector" fill-rule="evenodd" clip-rule="evenodd" d="M24.1348 7.72693C26.2697 7.72693 28.0003 5.9972 28.0003 3.86347C28.0003 1.72974 26.2697 0 24.1348 0C21.9999 0 20.2693 1.72974 20.2693 3.86347C20.2693 5.9972 21.9999 7.72693 24.1348 7.72693Z" fill="#6D758F"/>
<path id="Vector_2" fill-rule="evenodd" clip-rule="evenodd" d="M24.1348 17.8634C26.2697 17.8634 28.0003 16.1337 28.0003 14C28.0003 11.8662 26.2697 10.1365 24.1348 10.1365C21.9999 10.1365 20.2693 11.8662 20.2693 14C20.2693 16.1337 21.9999 17.8634 24.1348 17.8634Z" fill="#6D758F"/>
<path id="Vector_3" fill-rule="evenodd" clip-rule="evenodd" d="M24.1348 27.9998C26.2697 27.9998 28.0003 26.2701 28.0003 24.1364C28.0003 22.0026 26.2697 20.2729 24.1348 20.2729C21.9999 20.2729 20.2693 22.0026 20.2693 24.1364C20.2693 26.2701 21.9999 27.9998 24.1348 27.9998Z" fill="#6D758F"/>
<path id="Vector_4" fill-rule="evenodd" clip-rule="evenodd" d="M14.2915 17.8634C16.4264 17.8634 18.1571 16.1337 18.1571 14C18.1571 11.8662 16.4264 10.1365 14.2915 10.1365C12.1567 10.1365 10.426 11.8662 10.426 14C10.426 16.1337 12.1567 17.8634 14.2915 17.8634Z" fill="#6D758F"/>
<path id="Vector_5" fill-rule="evenodd" clip-rule="evenodd" d="M14.2915 27.9998C16.4264 27.9998 18.1571 26.2701 18.1571 24.1363C18.1571 22.0026 16.4264 20.2728 14.2915 20.2728C12.1567 20.2728 10.426 22.0026 10.426 24.1363C10.426 26.2701 12.1567 27.9998 14.2915 27.9998Z" fill="#6D758F"/>
<path id="Vector_6" fill-rule="evenodd" clip-rule="evenodd" d="M4.44803 27.9998C6.5829 27.9998 8.31354 26.2701 8.31354 24.1364C8.31354 22.0026 6.5829 20.2729 4.44803 20.2729C2.31317 20.2729 0.58252 22.0026 0.58252 24.1364C0.58252 26.2701 2.31317 27.9998 4.44803 27.9998Z" fill="#6D758F"/>
</g>
</svg>
